<?xml version="1.0" encoding="UTF-8"?><svg id="Layer_1" xmlns="http://www.w3.org/2000/svg" viewBox="0 0 534.6 564.4"><defs><style>.cls-1,.cls-2,.cls-3,.cls-4{stroke-width:0px;}.cls-2{fill:#f4ab17;}.cls-3{fill:#60682d;}.cls-4{fill:#722f37;}</style></defs><path class="cls-2" d="m165.44,154.12c.04,44.15.15,88.3.01,132.44-.04,15.97-14.33,33.08-32.57,32.6-12.66-.34-25.33-.07-37.99-.06-21.15.01-35.48-14.15-35.58-35.38-.21-41.65-.3-83.3-.48-124.95-.02-3.94-.11-7.88-.21-11.83h30.82c1.62.13,3.33.12,5.11,0h70.51c.15,2.62.38,4.9.38,7.18Z"/><path class="cls-1" d="m220.79,180.57c1.34,16.2,1.87,32.65.68,48.83-1.59,21.72-17.76,34.47-39.02,37.68-3.96.59-5.33,1.79-5.27,5.77.11,6.49.26,13.08-.69,19.46-2.76,18.58-18.82,37.16-39.32,37.81-13.82.44-27.65.77-41.47.75-4.59,0-9.32-.73-13.74-1.98-11.44-3.26-20.6-10.08-27.47-19.73-4.73-6.64-7.06-14.13-7.06-22.48-.02-45.99-.21-91.98-.36-137.96-.02-4.17-.27-8.33-.33-12.49-.07-5.42-1.41-10.22-4.17-15.11-4.85-8.6-6.31-18.09-4.26-28.02,3.7-17.95,11.7-32.85,27.17-43.78,14.56-10.27,25.75-9.47,37.18,4.42.51.61,1.15,1.11,1.9,1.83,1.39-.87,2.66-1.61,3.89-2.41,7.35-4.78,16.05-4.59,22.7,1.13,7.79,6.71,13.54,14.76,13.49,25.66,0,3.13,1.16,4.64,4.34,4.5,17.56-.79,28.38,15.87,27.97,30.66-.25,9.31-.04,18.62-.04,28.27,4.99.79,9.5,1.11,13.78,2.25,17.93,4.77,28.58,16.63,30.1,34.94Zm-10.48,48.53c.92-15.93.81-31.99-.01-47.93-.76-14.7-12.36-25.4-26.24-25.97-6.34-.26-6.48-.19-6.49,6.15-.05,27.32-.06,54.65-.09,81.97v12.67c16.93,1.6,31.86-10.17,32.83-26.89Zm-44.86,57.46c.14-44.14.03-88.29-.01-132.44,0-2.28-.23-4.56-.38-7.18h-70.51c7.28-.5,17.1-3.4,22.07-10.08,8.78-.38,15.66-.5,17.87-.51,9.96-.02,19.91-.01,30.2-.01,0-8.82.25-17.12-.07-25.39-.32-8.52-6.17-14.53-14.5-15.86-3-.47-4.88.02-6.05,3.32-2.98,8.48-8.78,14.43-17.39,17.35-2.31.78-4.76,1.13-6.96,1.63,0,3.15-.12,5.97.02,8.77.22,4.32-1.01,7.86-3.12,10.7-5.14.22-10.93.53-16.81.96,3.24-1.61,5.94-4.31,6.95-7.4,3.53-10.79-.29-19.03-10.54-23.3-3.88-1.61-7.54-3.74-11.9-5.93,4.57-4.72,7.97-3.11,11.68-1.71,6.18,2.33,12.47,4.49,18.86,6.15,5.8,1.51,10.96-.25,14.57-5.24,6.59-9.12,5.53-25.31-2.09-33.59-4.7-5.11-10.77-5.71-16.54-1.6-1.23.87-2.37,1.85-3.62,2.66-5.18,3.38-6.12,3.1-8.96-2.27-1-1.91-2.05-3.84-3.38-5.53-5.54-7-13.31-7.68-20.71-2.79-13.46,8.92-20.49,21.89-24.52,36.95-1.67,6.22-1.42,12.39,2.13,17.84,5.25,8.05,6.55,16.94,6.69,26.22.04,2.89.11,5.78.19,8.66.1,3.95.19,7.89.21,11.83.18,41.65.27,83.3.48,124.95.1,21.23,14.43,35.39,35.58,35.38,12.66-.01,25.33-.28,37.99.06,18.24.48,32.53-16.63,32.57-32.6Z"/><path class="cls-1" d="m99.81,137.82c5.88-.43,11.67-.74,16.81-.96-4.97,6.68-14.79,9.58-22.07,10.08h-5.11c-6.04-.43-10.99-2.53-14.28-6.45,4.4-.73,9.36-1.33,14.51-1.82.92.38,1.88.62,2.86.7,2.44.19,4.99-.41,7.28-1.55Z"/><path class="cls-1" d="m89.67,138.67c3.34-.33,6.76-.61,10.14-.85-2.29,1.14-4.84,1.74-7.28,1.55-.98-.08-1.94-.32-2.86-.7Z"/><path class="cls-1" d="m89.44,146.94h5.11c-1.78.12-3.49.13-5.11,0Z"/><path class="cls-1" d="m89.44,146.94h-30.81c.35-2.82,7.14-4.91,16.53-6.45,3.29,3.92,8.24,6.02,14.28,6.45Z"/><path class="cls-1" d="m82.25,128.18c.42,4.8,3.54,8.89,7.42,10.49-5.15.49-10.11,1.09-14.51,1.82-2.43-2.89-3.96-6.78-4.35-11.73-.61-7.62-.7-15.35-.1-22.95.2-2.52,3.03-5.1,5.23-7.01.58-.5,4.57,1.19,4.74,2.25.93,5.65,1.24,11.42,1.56,17.16.19,3.31-.28,6.67.01,9.97Z"/><path class="cls-1" d="m268.86.11c27.15,0,54.31.05,81.46-.06,3.69-.01,5.41,1.04,5.65,4.99,1.21,19.32,2.33,38.73-2.12,57.72-6.56,28-21.89,50.78-45.3,67.3-17.55,12.39-27.71,28.85-30.38,49.5-4.26,32.98-5.08,66.09,2.48,98.82,2.29,9.89,8.27,17.76,16.66,23.58,10.62,7.38,21.89,13.35,34.92,15.32,1.74.26,3.82.84,4.94,2.03,1.71,1.83,2.71,4.31,4.01,6.51-2.46,1.44-4.85,3.97-7.4,4.13-11.96.75-23.96,1.09-35.95,1.13-29.99.11-59.98-.02-89.96-.05-1.67,0-3.51.44-4.95-.13-1.98-.79-4.6-2-5.21-3.67-.63-1.71.22-4.7,1.5-6.21,1.35-1.59,3.92-2.24,6.06-3.03,8.72-3.21,17.74-5.75,26.18-9.58,20.83-9.46,29.6-27.49,30.74-48.93,1.19-22.25,1.6-44.72-.09-66.9-1.3-17.04-7.43-33.46-16.75-48.16-2.25-3.55-5.61-6.61-8.98-9.2-13.89-10.69-27.56-21.46-37.24-36.51-10.82-16.83-16.52-35.28-17.55-55.04-.65-12.45.16-24.97.25-37.46.03-4.44,1.59-6.27,6.56-6.22,26.82.27,53.64.13,80.47.13,0,0,0-.01,0-.02Zm-75.06,12.92c0,10.21-.36,20.35.08,30.44.81,18.83,5.9,36.38,16.84,52,9.55,13.63,21.92,24.3,36.25,32.3,13.72,7.66,28.64,8.09,42.67.86,20.49-10.56,35.29-27.13,45.08-47.82,10.1-21.35,10.82-44.27,9.51-67.79h-150.43Zm108.95,307.14c-6.82-5.84-14.52-10.86-20.07-17.63-5.59-6.82-9.04-15.38-13.29-22.95-3.7,20.62-18.73,32.29-37.14,40.58h70.5Zm-34.09-150.72c3.05-7.98,6.56-17.14,9.86-25.77h-20.07c3.67,9.25,7.17,18.08,10.21,25.77Z"/><path class="cls-1" d="m429.38,54.57c18.16,0,36.32.02,54.48-.01,5.34,0,7.34,2.42,5.6,7.47-.74,2.15-2.08,4.18-3.48,6.01-5.96,7.78-6.61,16.17-2.86,24.96,1.69,3.97,3.81,7.77,5.87,11.58,14.46,26.65,14.9,53.6-1,79.36-11.5,18.63-28.68,30.92-50.88,34.69-3.5.59-4.7,1.88-4.83,5.35-.76,19.65-1.71,39.32,2.24,58.74,2.06,10.15,7.36,18.49,16.49,24.02,9.46,5.73,19.12,10.88,30.48,11.63,1.31.09,3,.18,3.8.99,2.25,2.25,4.14,4.88,6.17,7.35-2.49,1.33-4.88,3.5-7.49,3.82-6.1.74-12.3.8-18.46.78-29.49-.09-58.98-.29-88.47-.46-1.5,0-3.2.32-4.45-.27-2.49-1.18-6.17-2.47-6.74-4.47-1.07-3.74,2-6.44,5.54-7.74,5.93-2.18,11.96-4.09,17.92-6.19,19.72-6.95,29.78-21.15,30.42-41.8.44-14.14.16-28.3.01-42.45-.05-4.87-2.04-7.74-7.58-9.2-33.9-8.91-56.65-34.71-59.99-68.14-1.86-18.58,3.02-35.98,11.7-52.38.47-.88.96-1.77,1.57-2.55,7.65-9.76,8.25-20.06,3.42-31.37-3.28-7.67-1.34-9.77,7.05-9.76,17.83.04,35.66.01,53.49.01,0,.02,0,.03,0,.05Zm-46.76,11.98c-.06,1.31-.31,2.18-.11,2.94,3.8,14.4-3.12,26.43-9.06,38.38-7.52,15.15-11.74,30.48-8.9,47.6,6.06,36.5,49.26,67.37,89.97,44.87,22.14-12.24,45.6-48.65,27.6-84.71-3.64-7.29-7.41-14.52-10.98-21.85-3.78-7.76-3.08-15.48.58-23.09.59-1.23,1.12-2.5,1.85-4.14h-90.96Zm66.72,252.42c-10.9-7.24-18.93-16.33-23.46-30.19-3.25,15.02-13.06,22.72-25.05,30.19h48.51Z"/><path class="cls-1" d="m225.47,511.63v32.23c-3.88.84-8.51,1.85-12.71,2.77.57-3.85,1.65-7.79,1.67-11.73.17-24.32.04-48.64.14-72.96.03-6.28.39-12.5-6.34-15.88,11.99,0,23.73-1.4,35,.29,23.26,3.5,32.36,33.43,16.32,52.09-3.27,3.8-7.59,6.7-11.58,10.14,4.07,7.27,8.24,15.21,12.87,22.87,4.57,7.56,9.59,14.84,13.86,22.77-5.68.55-10.09-1.49-12.86-5.47-6.64-9.53-13.13-19.21-18.98-29.24-5.57-9.56-5.99-10.16-17.4-7.87Zm-.65-10c14.8,1.54,27.22-6.2,31.04-19.06,3.11-10.47-1.89-22.69-11.28-25.22-6.22-1.68-12.95-1.48-19.76-2.15v46.43Z"/><path class="cls-1" d="m16.62,514.05c0,11.51.09,22.3-.07,33.08-.03,2.2-.3,5.04-1.65,6.44-3.86,3.99-8.34,7.39-12.35,10.84,4.59-35.97.76-71.71,2.13-107.3.15-3.86-2.3-7.82-4.68-11.41.16-.25.34-.71.49-.7,10.13.34,20.31.19,30.38,1.2,17.55,1.76,28.61,17.6,26.51,37.03-2,18.53-15.01,30.44-33.7,30.82-2.47.05-4.93,0-7.05,0Zm-.44-10.2c12.17,1.12,22.29-1.2,27.88-11.84,5.07-9.66,4.25-19.93-2.07-28.9-6.54-9.28-16.52-7.26-25.8-7.01v47.75Z"/><path class="cls-1" d="m275.65,445.13c12.45,0,23.1-.38,33.71.08,17.53.76,29.58,18.09,25.87,36.61-3.38,16.87-18.24,29.05-35.63,29.23-1.8.02-3.59.15-4.89.21,0,12.11-.26,23.85.17,35.57.12,3.25-.26,5.49-2.9,7.23-5.14,3.41-10.29,6.8-15.43,10.2-.39-.43-.78-.85-1.17-1.28.57-1.04.93-2.31,1.75-3.08,4.27-3.96,5.43-9.01,5.38-14.52-.16-15.98-.44-31.96-.51-47.95-.05-11.15.11-22.31.28-33.46.11-6.78,1.5-13.84-6.64-18.86Zm17.75,56.43c13.78,1.23,23.41-4.12,29.51-15.48,5.95-11.09.24-27.1-10.8-29.65-5.98-1.38-12.34-1.17-18.71-1.69v46.82Z"/><path class="cls-1" d="m67.73,489.18c0-5.32-.31-10.67.06-15.97.97-13.74,8.78-23.34,21.47-26.92,10.88-3.07,24.15,2.18,31.47,12.53,5.45,7.71,7.8,16.44,8.34,25.76.92,15.74-.62,30.93-9.59,44.54-11.94,18.13-34.56,17.67-45.07-1.24-2.85-5.12-4.78-11.03-5.81-16.82-1.28-7.16-1.17-14.56-1.66-21.86.26,0,.52-.02.79-.03Zm10.81,2.15c.42,8.26.34,14.12,1.14,19.87.61,4.37,1.63,8.97,3.72,12.78,6,10.93,17.61,11.91,25.29,2.16,2.92-3.7,5.41-8.15,6.68-12.66,3.89-13.85,4.35-27.99-.13-41.77-1.47-4.51-4.63-8.9-8.1-12.22-4.56-4.37-10.69-5.63-16.68-2.79-5.86,2.78-10.69,6.68-10.9,14.14-.21,7.64-.75,15.27-1.02,20.49Z"/><path class="cls-1" d="m185.28,445.5c4.45-.45,9.15-.92,14.84-1.49-6.71,10.67-3.69,21.65-3.79,32.33-.12,13.15.42,26.33-.04,39.46-.59,16.97-12.95,28.38-28.63,27.22-13.73-1.02-24.56-12.94-24.99-28.4-.47-17.14-.18-34.31-.46-51.46-.2-11.67,1.11-8.71-4.76-17.49.25-.17.5-.47.75-.47,5.15-.03,10.31-.02,15.54-.02,0,24.1-.09,47.82.12,71.53.03,2.84,1.16,5.99,2.7,8.42,3.62,5.72,8.93,9.4,15.95,7.87,6.97-1.52,10.77-6.97,12.8-13.43.88-2.8,1.02-5.92.98-8.89-.26-21.62-.66-43.24-1.02-65.16Z"/><path class="cls-1" d="m341.77,444.66c9.11.36,18.22.86,27.34,1.04,8.94.18,17.89.04,27.15.04v14.04c-12.05-7.74-24.87-3.4-38-4.52,0,10.97-.1,21.39.16,31.79.02.97,2.23,2.64,3.48,2.69,6.95.26,13.91.13,21.64.13-.34,4.22-.64,7.91-.91,11.22-8.25-.37-15.93-.72-23.71-1.07v32.13h36.19v10.38h-47.57c0-26.69-.01-53.56.01-80.42,0-6.49,1.01-13.28-5.79-17.45Z"/><path class="cls-1" d="m464.07,523c-2.11,12.59-15,20.51-27.23,18.69-13.33-1.97-24.73-13.55-28.12-29.44-2.87-13.44-3.78-27.19-.97-40.68,2.38-11.42,8.9-20.44,20.51-24.49,11.8-4.12,22.28-1.31,31.5,6.81,1.23,1.09,2.83,2.36,3.12,3.78.47,2.28.93,6.01-.26,6.9-2.53,1.89-6.69,3.02-8.84-.6-4.3-7.24-10.54-9.37-18.25-7.98-8.26,1.49-13.72,7.08-15.19,14.81-3.04,15.94-4.05,32.14,2.1,47.71,5.39,13.66,16.57,17.42,29.51,10.55,3.99-2.12,8.08-4.05,12.13-6.07Z"/><path class="cls-1" d="m534.6,458.46c-8.96-1.17-17.57-2.3-25.65-3.35v90.3c-3.83.64-8.84,1.48-13.33,2.23,3.43-28.07.95-56.45,1.94-84.72.07-1.99,0-3.98,0-6.67-8.62-.57-17.06-2.68-24.23,5.33v-16.18h60.04c.4,4.32.84,9.01,1.22,13.07Z"/><path class="cls-1" d="m250.09,423.61c-77.93,2.7-155.88.66-233.82,1.35-.12-.72-.24-1.44-.36-2.16,1.82-.39,3.63-1.11,5.45-1.13,26.48-.21,52.96-.45,79.44-.45,43.47-.01,86.94.14,130.41.22,6.31.01,12.62,0,18.94,0l-.05,2.17Z"/><path class="cls-1" d="m526.37,423.62c-3.27.33-6.55.96-9.82.95-28.81-.07-57.62-.39-86.43-.38-29.81.01-59.62.34-89.43.46-3.21.01-6.42-.5-10.95-.88,6.41-3.27,186.74-4.19,196.3-1.72.11.52.22,1.05.33,1.57Z"/><path class="cls-1" d="m173.42,351.45c4.17-1.51,5.54.19,6.21,3.34.9,4.21,2.04,8.37,3.26,13.28,2.94-6.38,5.61-12.18,8.28-17.98.46.06.92.12,1.39.17,2.34,5.18,4.67,10.36,7.2,15.96,1.83-4.75,3.35-9.02,5.17-13.14.41-.94,1.82-1.69,2.9-1.94.41-.09,1.81,1.54,1.73,2.27-1.15,10.08-4.78,19.37-8.55,28.59-.76.08-1.52.16-2.28.23-2.02-5.71-4.05-11.41-6.07-17.12-.38-.04-.76-.08-1.14-.12-1.29,3.76-2.38,7.61-3.97,11.24-.78,1.78-2.51,3.14-3.81,4.69-1.4-1.63-3.44-3.04-4.08-4.93-2.15-6.28-3.87-12.71-5.61-19.12-.46-1.7-.42-3.54-.63-5.45Z"/><path class="cls-1" d="m7.45,381.07v-29.12c3.96,0,7.73.12,11.5-.03,4.7-.19,8.44,1.83,9.96,5.95.86,2.34-.5,5.5-1.01,9.43,1.41,1.13,5.21,2.72,2.73,7.44-2.36,4.48-5.63,6.66-10.74,6.37-3.94-.22-7.9-.04-12.44-.04Zm6.71-13.04c-.36.47-.72.93-1.08,1.4.63,1.78.99,4.9,1.93,5.09,2.55.51,5.4-.03,8.01-.66.47-.11.71-3.75.5-3.81-3.06-.87-6.22-1.41-9.36-2.02Zm-2.85-9.86c1.55,2.22,2.34,4.46,3.37,4.58,2.3.26,4.72-.54,7.09-.91-.42-1.22-.67-3.39-1.28-3.49-2.39-.41-4.88-.17-9.18-.17Z"/><path class="cls-1" d="m45.74,358.15c-.82,3.6.21,5.18,3.7,4.85,1.81-.17,3.72-.3,5.46.1,1.28.29,2.37,1.46,3.55,2.23-1.1,1.2-2.02,3.15-3.33,3.45-2.86.65-5.9.47-9.27.65-.11,1.46-.21,2.84-.31,4.2.76.32,1.19.65,1.64.66,2.98.08,5.97.15,8.96.12,4.42-.03,5.78,2.22,4.96,6.52h-21.12v-28.58c7-.34,13.72-.68,20.76-1.02.83,3.96-.5,6.14-4.82,6.28-3.3.11-6.59.35-10.17.54Z"/><path class="cls-1" d="m238.62,351.14c4.84,5.25,9.68,10.49,15.12,16.38,0-4.16-.24-7.84.11-11.45.16-1.62,1.5-3.12,2.3-4.68.84,1.48,2.35,2.95,2.39,4.45.24,8.28.11,16.57.11,25.93-7.89-3.83-10.53-12.1-17.52-16.9.25,5.54.46,10.38.76,16.95-2.58-1.51-5.59-2.4-5.63-3.43-.38-8.71-.22-17.44-.22-26.17.86-.36,1.72-.72,2.57-1.07Z"/><path class="cls-1" d="m442.83,380.7h-5.53v-28.72c4.78,0,9.35-.91,13.27.3,2.99.92,5.77,4.15,7.52,7.03,1.78,2.94.32,6.11-2.49,8.32-.89.7-1.67,1.55-2.52,2.34,2.02,3.37,3.94,6.57,6.07,10.11-3.87,1.71-6.5,1.22-8.43-2.06-.34-.57-.72-1.12-1.1-1.67-1.6-2.34-2.33-6.4-6.2-4.83-.98.4-.44,4.55-.59,6.97-.04.63,0,1.26,0,2.22Zm-1.54-16.41c.53.59,1.05,1.18,1.58,1.77,3.03-1.08,6.1-2.06,9.03-3.37.3-.14-.07-3.21-.51-3.32-2.78-.67-5.75-1.37-8.48-.95-.82.13-1.09,3.81-1.62,5.87Z"/><path class="cls-1" d="m333.21,370.96c1.2-1.54,2.1-2.8,3.16-3.89.11-.11,1.82.91,1.76,1.11-.62,2.13-1.45,4.2-2.4,6.76.06.04.94.31,1.22.88.59,1.2.86,2.55,1.26,3.84-1.47.12-3.56.92-4.3.25-2.7-2.46-4.55-1.42-7.36.01-2.28,1.16-6.31,1.45-8.22.15-2.6-1.76-5.49-5.48-5.35-8.21.14-2.66,3.95-5.13,6.01-7.52-.81-2.03-2.96-4.75-2.41-6.7.71-2.49,3.27-4.92,5.64-6.37,3.05-1.86,6.14-.07,7.51,2.76.97,2.01,1.42,5.41.36,7.06-3.52,5.45-3.38,6.77,3.12,9.88Zm-10,6.07c1.81-1.89,2.96-3.09,4.1-4.29-1.49-1.31-2.82-3.19-4.54-3.69-.93-.26-2.54,1.87-3.84,2.92,1.24,1.47,2.48,2.94,4.27,5.06Zm4.43-18.17c-1.7-1.45-2.81-2.39-3.92-3.33-.73.93-2.25,2.16-2.03,2.72.51,1.31,1.85,2.3,2.85,3.42.83-.75,1.66-1.5,3.09-2.8Z"/><path class="cls-1" d="m71.79,380.28v-27.95h19.2c.35,4.52.31,4.56-4.06,4.77-2.99.14-5.98.31-8.96.52-.47.03-.92.32-1.36.47q-.28,4.21,12.01,5.29c.36,3.2.35,5.91-4.18,5.71-2.78-.12-5.58-.02-8.34-.02-.13,3.96,1.42,5.54,5.12,5.04,1.96-.27,3.98-.07,5.98-.05,3.65.03,4.92,2.15,4.78,6.23h-20.19Z"/><path class="cls-1" d="m269.87,351.67h19.45c.95,3.78-.14,5.78-4.58,5.53-2.95-.16-5.93.22-9.09.37v5.34h10.28q1.25,5.68-10.62,6.11c-.12,1.49-.24,3.04-.34,4.31,5.07,3,13.97-3.57,15.3,7.45-6.08,0-11.85.18-17.6-.17-1-.06-2.63-2.36-2.67-3.66-.25-8.14-.12-16.29-.12-25.28Z"/><path class="cls-1" d="m103.66,351.99c4.49,0,8.45-.1,12.41.03,4.69.15,9.36,4.54,9.13,9.2-.1,1.96-1.56,4.52-3.19,5.62-3.5,2.34-3.29,4.4-.87,7.2,1.39,1.61,2.53,3.44,3.89,5.31-2.45,2.72-4.22,3.2-6-.4-1.99-4.02-4.22-7.99-10.14-8.67.17,2.42.68,4.68.35,6.82-.21,1.38-1.63,2.57-2.5,3.84-1.03-1.12-2.91-2.22-2.94-3.37-.26-8.27-.14-16.55-.14-25.58Zm11.41,4.25c-3.82,1.38-7.78,0-7.49,4.89.28,4.85,4.54,3.12,7.17,3.8,2.8.72,4.94-.99,4.41-3.65-.38-1.88-2.66-3.37-4.09-5.03Z"/><path class="cls-1" d="m526.54,371.19c-3.07-1.35-6.23-2.17-8.67-3.98-2.28-1.7-5.67-4.97-5.21-6.62.9-3.22,3.6-6.87,6.55-8.32,2.66-1.31,6.68-.08,10.04.41.98.14,2.45,1.6,2.45,2.46,0,.95-1.3,2.5-2.27,2.71-1.98.43-4.12.05-6.18.17-1.32.07-2.62.44-3.92.67.77,1.22,1.25,2.88,2.35,3.56,2.8,1.73,5.96,2.87,8.8,4.54,3.31,1.95,3.62,4.88,2.03,8.19-3.12,6.49-12.68,8.74-17.8,3.92-1.2-1.13-1.32-3.4-1.93-5.15,1.61.03,3.34-.31,4.8.18,3.57,1.19,6.97,2.56,8.95-2.73Z"/><path class="cls-1" d="m361.45,373.16c4.34.22,9.22,4.95,13.53-1.67-3.18-1.63-6.32-2.61-8.61-4.58-2.46-2.12-5.75-5.24-5.65-7.81.1-2.63,3.48-6.66,6.11-7.31,3.35-.82,7.42,1.01,11.1,2.02.6.16,1.36,2.47,1,2.88-.87,1.01-2.38,2.09-3.58,2.02-1.72-.09-3.35-1.41-5.11-1.72-1.14-.2-2.44.46-3.67.74.5,1.24.67,2.96,1.59,3.61,2.01,1.42,4.5,2.13,6.62,3.41,3.07,1.85,6.83,3.4,5.74,8.17-.88,3.85-5.78,8.28-9.65,8.2-2.73-.06-5.56-.78-8.14-1.75-3.81-1.42-3.85-2.19-1.28-6.2Z"/><path class="cls-1" d="m394.69,371.57c.22,3.06.42,5.84.66,9.08-1.46.15-2.84.28-4.88.49v-28.94c4.24,0,8.69-.41,13.03.11,4.62.55,7.9,4.91,8.03,9.47.14,4.81-2.71,7.41-6.9,8.51-2.99.78-6.17.83-9.94,1.29Zm1.05-4.89c3.7-1.32,6.6-2.18,9.28-3.5.37-.18.07-3.44-.66-3.81-2.54-1.27-5.39-1.9-8.62-2.94v10.24Z"/><path class="cls-1" d="m483.95,358.07c-.73-4.2-.24-6.64,4.84-6.2,5.23.45,10.52.1,15.86.1q.82,5.62-7.39,7c0,5.6.11,11.17-.06,16.74-.06,2.02,1.11,5.33-2.7,5.17-3.09-.13-3.97-2.52-3.74-5.39.24-2.99.39-5.98.55-8.98q.39-7.55-7.35-8.44Z"/><path class="cls-1" d="m468.84,352.42c4.56-1.43,5.92.29,5.8,4.51-.22,7.76-.06,15.53-.06,23.59-3.17,1.05-5.54.19-5.65-3.13-.28-8.22-.09-16.46-.09-24.97Z"/><path class="cls-1" d="m420.26,352.51c3.97-1.1,5.39-.12,5.34,3.37-.08,6.81.02,13.62.27,20.42.15,4.01-1.47,5.45-5.61,4.58v-28.36Z"/><path class="cls-1" d="m224.05,352.46v27.67c-.86.1-2.41.28-4.54.53,0-9.04-.09-17.74.14-26.43.02-.86,1.95-1.67,2.99-2.5l1.41.72Z"/><path class="cls-1" d="m134.03,389.26c1.66-5.19,2.87-9.45,4.42-13.57.38-1.02,1.87-1.62,2.85-2.42.8,1.12,2.05,2.13,2.32,3.36,1.25,5.67-1.88,10.19-9.6,12.62Z"/><path class="cls-1" d="m87.09,257.46c0,10.15.03,20.3-.02,30.45-.02,3.7-.59,7.4-5.36,7.43-4.31.03-6.09-3.22-6.46-6.93-.47-4.79-.47-9.63-.51-14.45-.13-15.14-.18-30.29-.25-45.43,0-1.5.04-3,.13-4.49.22-3.52,2.42-6.19,5.54-5.81,2.33.28,5.51,2.73,6.24,4.9,1.16,3.48.72,7.54.76,11.36.08,7.65.02,15.31.02,22.97-.03,0-.07,0-.1,0Z"/><path class="cls-1" d="m75.06,183.02c0-4.99-.06-9.98.02-14.97.04-2.7.07-5.62,4.06-5.41,3.82.2,7.62.62,7.87,5.65.19,3.82.11,7.65.1,11.48,0,5.16,0,10.32-.1,15.48-.1,4.93-2.78,7.95-7.12,7.73-4.69-.24-5.31-3.7-5.3-7.47.02-4.16,0-8.32,0-12.48.15,0,.3,0,.46,0Z"/><path class="cls-1" d="m125.82,180.93c-5.58-.2-8.47-2.46-8.17-6.38.3-3.9,5.03-8.28,8.74-8.1,3.61.18,7.08,4.1,6.88,7.77-.24,4.31-3.07,6.86-7.44,6.71Z"/><path class="cls-1" d="m121.33,207.63c.13,4.04-3.08,7.65-6.88,7.74-3.8.08-7.69-3.83-7.7-7.74,0-3.3,4.05-7.93,7.08-8.11,3.26-.19,7.37,4.26,7.5,8.12Z"/><path class="cls-3" d="m270.24,27.65c9.29.15,17.4,7.52,17.36,15.78-.05,9.03-8.76,18.71-16.74,18.62-10.45-.12-18.88-8.54-18.72-18.69.14-8.26,8.88-15.85,18.1-15.71Z"/><path class="cls-3" d="m269.87,36.11c4.73-.02,9.1,4.25,9.03,8.83-.06,3.75-5.83,9.04-9.91,9.07-4.04.03-7.47-3.83-7.43-8.37.05-5,3.99-9.52,8.31-9.53Z"/><path class="cls-1" d="m238.51,84.69c5.59.07,10.61-3.52,10.79-7.22.18-3.64-3.8-8.06-7.4-8.21-3.65-.15-8.98,5.6-9.03,10-.05,4.17,2.88,5.18,5.64,5.42Z"/><path class="cls-3" d="m256.83,76.88c1.13,9.32-8.28,17.13-16.85,17.2-9.04.08-16.39-7.23-16.5-16.47-.11-8.58,8.35-17.55,16.55-17.55,9.98,0,16.61,6.65,16.8,16.82Z"/><path class="cls-3" d="m306.88,77.91c.1,4.56-3.85,8.17-8.85,8.08-4.44-.07-9.17-3.85-9.35-7.46-.2-4.02,5.52-9.57,9.89-9.59,4.14-.02,8.21,4.38,8.31,8.97Z"/><path class="cls-3" d="m298.26,59.93c9.21-.05,17.33,8.62,17.23,18.38-.09,8.34-8.61,16.57-17.02,16.45-7.85-.12-17.35-10.54-17.35-19.02s7.72-15.76,17.14-15.81Zm-.23,26.06c5,.09,8.95-3.52,8.85-8.08-.1-4.59-4.17-8.99-8.31-8.97-4.37.02-10.09,5.57-9.89,9.59.18,3.61,4.91,7.39,9.35,7.46Z"/><path class="cls-3" d="m270.34,99.13c4.27-.04,7.54,3.29,7.44,7.58-.1,4.16-3.43,7.21-7.87,7.23-3.85,0-7.77-3.04-7.91-6.17-.14-3.36,4.92-8.6,8.34-8.64Z"/><path class="cls-3" d="m285.55,106.65c.09,9.14-6.62,15.43-16.43,15.4-8.6-.03-15.89-7.32-15.84-15.84.05-8.6,8.18-16.75,16.56-16.6,7.8.14,15.63,8.62,15.71,17.04Zm-7.77.06c.1-4.29-3.17-7.62-7.44-7.58-3.42.04-8.48,5.28-8.34,8.64.14,3.13,4.06,6.18,7.91,6.17,4.44-.02,7.77-3.07,7.87-7.23Z"/><path class="cls-1" d="m210.37,40.67c0-2.15.04-4.3,0-6.45-.07-3.29,1.38-5.71,4.69-5.88,3.53-.18,6.08,1.9,6.48,5.53.61,5.58,1.01,11.2,1.05,16.81,0,1.03-2.04,2.83-3.29,2.98-3.35.41-7.44,1.12-8.49-3.61-.67-3.03-.5-6.24-.7-9.38.09,0,.18,0,.28,0Z"/><path class="cls-4" d="m426.87,128.69c13.98,0,27.96.02,41.94-.01,2.62,0,4.57.68,5,3.64,2.84,19.6-3.27,36.66-17.23,49.89-12.99,12.31-29.68,16.16-46.42,9.11-24.76-10.43-37.81-31.56-31.86-58.44.97-4.39,3.1-5.9,7.61-5.81,13.65.27,27.3.1,40.95.1,0,.51,0,1.02,0,1.53Z"/></svg>