<?xml version="1.0" encoding="UTF-8"?>
<!DOCTYPE svg PUBLIC "-//W3C//DTD SVG 1.1//EN" "http://www.w3.org/Graphics/SVG/1.1/DTD/svg11.dtd">
<!-- Creator: CorelDRAW -->
<svg xmlns="http://www.w3.org/2000/svg" xml:space="preserve" width="2048px" height="2048px" style="shape-rendering:geometricPrecision; text-rendering:geometricPrecision; image-rendering:optimizeQuality; fill-rule:evenodd; clip-rule:evenodd"
viewBox="0 0 2048 2048"
 xmlns:xlink="http://www.w3.org/1999/xlink">
 <defs>
  <style type="text/css">
   <![CDATA[
    .fil2 {fill:none}
    .fil5 {fill:#650000}
    .fil6 {fill:#741919}
    .fil13 {fill:#C00000}
    .fil8 {fill:#C62828}
    .fil9 {fill:#C8D3D6}
    .fil11 {fill:#CFD7DC}
    .fil12 {fill:#D50000}
    .fil1 {fill:#EF6C00}
    .fil0 {fill:#FB8C00}
    .fil7 {fill:#FFECB3}
    .fil4 {fill:#2B0000;fill-rule:nonzero}
    .fil3 {fill:#D50000;fill-rule:nonzero}
    .fil10 {fill:#DDE3E6;fill-rule:nonzero}
   ]]>
  </style>
   <clipPath id="id0">
    <path d="M1024 -0.0011811c565.541,0 1024,458.461 1024,1024 0,565.541 -458.461,1024 -1024,1024 -565.541,0 -1024,-458.461 -1024,-1024 0,-565.541 458.461,-1024 1024,-1024z"/>
   </clipPath>
 </defs>
 <g id="Layer_x0020_1">
  <metadata id="CorelCorpID_0Corel-Layer"/>
  <path class="fil0" d="M1024 -0.0011811c565.541,0 1024,458.461 1024,1024 0,565.541 -458.461,1024 -1024,1024 -565.541,0 -1024,-458.461 -1024,-1024 0,-565.541 458.461,-1024 1024,-1024z"/>
  <g style="clip-path:url(#id0)">
   <g id="_517131304">
    <g>
     <polygon id="_4899523441" class="fil1" points="1273.19,597.129 2409.07,1733.01 2409.07,1733.03 2409.06,1733.04 2409.06,1733.06 2409.06,1733.07 2409.05,1733.09 2409.05,1733.1 2409.04,1733.12 2409.04,1733.13 1273.16,597.251 1273.16,597.235 1273.17,597.22 1273.17,597.205 1273.17,597.189 1273.18,597.174 1273.18,597.16 1273.19,597.145 "/>
     <polygon id="_489952320" class="fil1" points="1576.69,757.789 2712.57,1893.67 2711.41,1901.76 2710.04,1909.98 2708.47,1918.31 2706.71,1926.75 2704.76,1935.28 2702.62,1943.88 2700.3,1952.55 2697.81,1961.26 2695.16,1970 2692.33,1978.77 2689.35,1987.54 2686.22,1996.3 2682.93,2005.04 2679.51,2013.74 2675.94,2022.39 2672.24,2030.98 2668.42,2039.5 2664.47,2047.92 2660.4,2056.23 2656.22,2064.43 2651.94,2072.49 2647.55,2080.41 2643.06,2088.17 2638.48,2095.75 2633.81,2103.14 2629.07,2110.33 2624.24,2117.3 2619.34,2124.05 2614.38,2130.55 2609.36,2136.79 2604.28,2142.76 2599.14,2148.44 1463.26,1012.56 1468.39,1006.88 1473.48,1000.91 1478.5,994.664 1483.46,988.164 1488.36,981.42 1493.19,974.447 1497.93,967.256 1502.6,959.864 1507.18,952.283 1511.66,944.527 1516.05,936.61 1520.34,928.547 1524.52,920.351 1528.59,912.035 1532.54,903.614 1536.36,895.101 1540.06,886.511 1543.63,877.859 1547.05,869.155 1550.34,860.415 1553.47,851.653 1556.45,842.884 1559.27,834.12 1561.93,825.376 1564.42,816.664 1566.74,808.001 1568.88,799.399 1570.83,790.871 1572.59,782.432 1574.16,774.096 1575.53,765.877 "/>
     <polygon id="_489953112" class="fil1" points="1463.26,1012.56 2599.14,2148.44 2436.28,2088.76 1300.4,952.876 "/>
     <polygon id="_489953352" class="fil1" points="1300.4,952.876 2436.28,2088.76 2415.53,2081.16 1279.65,945.274 "/>
     <polygon id="_489953544" class="fil1" points="848.79,521.892 1984.67,1657.77 1983.12,1661.25 847.242,525.371 "/>
     <polygon id="_489953712" class="fil1" points="955.57,698.541 2091.45,1834.42 2089.77,1832.68 2087.97,1831 2086.05,1829.4 2083.99,1827.86 2081.8,1826.39 2079.47,1825 2076.99,1823.68 2074.36,1822.44 938.475,686.555 941.105,687.799 943.585,689.118 945.917,690.511 948.109,691.978 950.167,693.514 952.092,695.122 953.892,696.798 "/>
     <polygon id="_489952992" class="fil1" points="938.475,686.555 2074.36,1822.44 1938.32,1761.87 802.443,625.989 "/>
     <polygon id="_489954024" class="fil1" points="1122.8,887.793 2258.68,2023.68 2235.53,2015.19 1099.65,879.309 "/>
     <polygon id="_489954288" class="fil1" points="1140.79,894.517 2276.67,2030.4 2258.61,2023.78 1122.73,887.9 "/>
     <polygon id="_489954048" class="fil1" points="1099.65,879.309 2235.53,2015.19 2178.44,1994.27 1042.56,858.39 "/>
     <polygon id="_489954408" class="fil1" points="802.443,625.989 1938.32,1761.87 1936.78,1765.35 800.894,629.468 "/>
     <polygon id="_489953952" class="fil1" points="768.377,479.678 1904.26,1615.56 1901.88,1620.91 765.995,485.03 "/>
     <polygon id="_489954456" class="fil1" points="1140.86,894.412 2276.74,2030.29 2276.73,2030.31 2276.72,2030.32 2276.71,2030.33 2276.71,2030.35 2276.7,2030.36 2276.69,2030.37 2276.68,2030.39 2276.67,2030.4 1140.79,894.517 1140.8,894.504 1140.81,894.491 1140.81,894.478 1140.82,894.464 1140.83,894.451 1140.84,894.438 1140.85,894.425 "/>
     <polygon id="_489954120" class="fil1" points="800.894,629.468 1936.78,1765.35 1853.98,1728.49 718.099,592.606 "/>
     <polygon id="_489954168" class="fil1" points="1042.56,858.39 2178.44,1994.27 2172.69,1992.04 2167.28,1989.69 2162.19,1987.24 2157.41,1984.67 2152.94,1982.01 2148.77,1979.25 2144.87,1976.41 2141.25,1973.48 2137.89,1970.47 2134.79,1967.39 998.906,831.51 1002.01,834.589 1005.37,837.595 1008.99,840.524 1012.88,843.369 1017.06,846.127 1021.53,848.79 1026.3,851.353 1031.39,853.811 1036.81,856.159 "/>
     <polygon id="_489954360" class="fil1" points="718.099,592.606 1853.98,1728.49 1851.6,1733.84 715.717,597.957 "/>
     <polygon id="_489953760" class="fil1" points="666.386,564.169 1802.27,1700.05 1799.08,1700.27 1796.13,1700.94 1793.44,1702.05 1790.98,1703.57 1788.75,1705.5 1786.74,1707.8 1784.95,1710.45 1783.37,1713.44 1781.99,1716.75 1780.81,1720.35 1779.82,1724.22 1779.01,1728.35 1778.37,1732.71 1777.91,1737.28 1777.6,1742.05 1777.45,1746.99 1777.45,1752.08 1777.58,1757.3 1777.85,1762.63 1778.25,1768.06 1778.77,1773.55 1779.4,1779.09 1780.14,1784.67 1780.98,1790.25 1781.91,1795.82 1782.92,1801.35 1784.02,1806.84 1785.19,1812.25 1786.42,1817.57 1787.71,1822.78 1789.05,1827.85 1790.44,1832.76 654.558,696.88 653.171,691.964 651.83,686.893 650.539,681.688 649.307,676.368 648.14,670.956 647.044,665.471 646.028,659.934 645.097,654.365 644.26,648.784 643.522,643.212 642.89,637.668 642.371,632.175 641.973,626.752 641.702,621.42 641.565,616.197 641.568,611.106 641.719,606.168 642.025,601.401 642.492,596.827 643.127,592.465 643.939,588.337 644.931,584.463 646.113,580.863 647.49,577.557 649.071,574.567 650.86,571.913 652.867,569.613 655.097,567.69 657.556,566.164 660.253,565.055 663.194,564.383 "/>
     <polygon id="_489953976" class="fil1" points="683.178,577.058 1819.06,1712.94 1809.03,1708.48 1807.74,1707.8 1806.56,1706.99 1805.51,1706.06 669.626,570.175 670.681,571.108 671.859,571.92 673.153,572.594 "/>
     <polygon id="_489954624" class="fil1" points="715.717,597.957 1851.6,1733.84 1816.68,1718.29 680.796,582.409 "/>
     <polygon id="_489954672" class="fil1" points="654.558,696.88 1790.44,1832.76 1792.19,1838.9 1793.87,1845.05 1795.48,1851.22 1797.03,1857.38 1798.5,1863.53 1799.9,1869.67 1801.22,1875.77 1802.46,1881.83 1803.62,1887.84 1804.69,1893.78 1805.68,1899.66 1806.58,1905.46 1807.4,1911.16 1808.12,1916.76 1808.75,1922.26 1809.28,1927.62 1809.72,1932.86 1810.05,1937.96 1810.28,1942.9 1810.41,1947.68 1810.43,1952.29 1810.34,1956.72 1810.14,1960.95 1809.83,1964.98 1809.41,1968.8 1808.86,1972.4 1808.2,1975.76 1807.42,1978.88 1806.51,1981.75 1805.48,1984.36 1804.32,1986.69 1803.03,1988.74 667.149,852.853 668.438,850.805 669.598,848.474 670.63,845.87 671.538,843.002 672.322,839.88 672.983,836.516 673.527,832.92 673.953,829.101 674.264,825.069 674.462,820.835 674.549,816.408 674.528,811.799 674.401,807.018 674.169,802.074 673.835,796.979 673.4,791.742 672.869,786.373 672.24,780.882 671.517,775.28 670.704,769.575 669.801,763.779 668.81,757.902 667.734,751.954 666.575,745.945 665.334,739.884 664.015,733.784 662.619,727.652 661.147,721.498 659.604,715.334 657.989,709.17 656.307,703.015 "/>
     <polygon id="_489955248" class="fil1" points="667.149,852.853 1803.03,1988.74 1801.77,1992.28 1799.98,1995.19 1797.76,1997.46 1795.21,1999.14 1792.4,2000.24 1789.44,2000.79 1786.42,2000.81 1783.42,2000.32 1780.55,1999.34 1777.89,1997.91 1775.54,1996.03 639.657,860.147 642.011,862.023 644.671,863.461 647.543,864.436 650.538,864.928 653.561,864.91 656.521,864.362 659.325,863.26 661.882,861.582 664.1,859.303 665.886,856.401 "/>
     <polygon id="_489954792" class="fil1" points="1261.3,938.548 2397.18,2074.43 2276.74,2030.29 1140.86,894.412 "/>
     <polygon id="_489954840" class="fil1" points="1279.65,945.274 2415.53,2081.16 2397.18,2074.43 1261.3,938.548 "/>
     <polygon id="_489955176" class="fil1" points="773.092,916.791 1908.97,2052.67 1909.59,2053.29 773.705,917.407 "/>
     <polygon id="_489955200" class="fil1" points="773.738,917.4 1909.62,2053.28 1910.84,2055.26 1912.06,2057.25 1913.25,2059.26 1914.43,2061.29 1915.6,2063.34 1916.75,2065.4 1917.89,2067.49 1919.01,2069.59 1920.12,2071.71 1921.21,2073.84 1922.28,2076 1923.34,2078.17 1924.39,2080.36 1925.42,2082.56 1926.43,2084.78 1927.43,2087.02 1928.41,2089.27 1929.37,2091.54 1930.32,2093.83 1931.25,2096.13 1932.17,2098.45 1933.07,2100.78 1933.95,2103.13 1934.81,2105.49 1935.66,2107.87 1936.49,2110.26 1937.3,2112.67 1938.1,2115.09 1938.88,2117.53 1939.63,2119.98 1940.38,2122.44 1941.1,2124.92 805.221,989.038 804.497,986.56 803.754,984.095 802.994,981.646 802.216,979.209 801.421,976.787 800.608,974.379 799.778,971.987 798.93,969.608 798.066,967.246 797.184,964.898 796.287,962.565 795.371,960.248 794.44,957.946 793.492,955.66 792.527,953.39 791.547,951.137 790.55,948.898 789.537,946.678 788.508,944.473 787.463,942.285 786.403,940.115 785.327,937.961 784.236,935.825 783.129,933.706 782.007,931.603 780.87,929.52 779.718,927.454 778.551,925.406 777.37,923.377 776.174,921.366 774.963,919.373 "/>
     <polygon id="_489954984" class="fil1" points="805.221,989.038 1941.1,2124.92 1941.88,2127.66 1942.63,2130.42 1943.36,2133.19 1944.07,2135.97 1944.75,2138.77 1945.42,2141.59 1946.06,2144.42 1946.67,2147.27 1947.26,2150.13 1947.83,2153 1948.38,2155.89 1948.9,2158.79 1949.4,2161.71 1949.87,2164.64 1950.32,2167.58 1950.75,2170.53 1951.15,2173.5 1951.53,2176.48 1951.88,2179.47 1952.2,2182.47 1952.5,2185.49 1952.78,2188.52 1953.03,2191.55 1953.25,2194.6 1953.45,2197.66 1953.62,2200.74 1953.77,2203.82 1953.89,2206.91 1953.98,2210.01 1954.05,2213.12 1954.09,2216.24 1954.11,2219.37 818.225,1083.49 818.212,1080.36 818.17,1077.24 818.103,1074.13 818.01,1071.03 817.889,1067.93 817.743,1064.85 817.57,1061.78 817.372,1058.72 817.147,1055.67 816.897,1052.63 816.622,1049.61 816.321,1046.59 815.995,1043.59 815.644,1040.6 815.268,1037.62 814.867,1034.65 814.442,1031.69 813.993,1028.75 813.518,1025.82 813.021,1022.91 812.499,1020.01 811.953,1017.12 811.384,1014.25 810.791,1011.38 810.174,1008.54 809.535,1005.71 808.873,1002.89 808.188,1000.09 807.479,997.304 806.749,994.533 805.996,991.777 "/>
     <polygon id="_489954912" class="fil1" points="818.225,1083.49 1954.11,2219.37 1954.05,2225.89 1953.87,2232.36 1953.58,2238.79 1953.18,2245.17 1952.67,2251.51 1952.04,2257.79 1951.31,2264.03 1950.47,2270.21 1949.53,2276.33 1948.47,2282.4 1947.32,2288.4 1946.06,2294.35 1944.71,2300.23 1943.25,2306.05 1941.7,2311.79 1940.05,2317.47 1938.31,2323.08 1936.47,2328.61 1934.54,2334.07 1932.52,2339.45 1930.41,2344.76 1928.21,2349.98 1925.93,2355.11 1923.56,2360.17 1921.11,2365.13 1918.57,2370.01 1915.96,2374.79 1913.26,2379.48 1910.49,2384.08 1907.64,2388.58 1904.71,2392.98 1901.72,2397.28 765.836,1261.4 768.833,1257.1 771.758,1252.7 774.608,1248.2 777.38,1243.6 780.075,1238.91 782.69,1234.12 785.225,1229.25 787.677,1224.28 790.046,1219.23 792.329,1214.09 794.527,1208.87 796.636,1203.57 798.656,1198.19 800.586,1192.73 802.424,1187.2 804.168,1181.59 805.817,1175.91 807.37,1170.16 808.827,1164.35 810.183,1158.47 811.439,1152.52 812.593,1146.51 813.644,1140.45 814.59,1134.32 815.431,1128.14 816.164,1121.91 816.787,1115.63 817.301,1109.29 817.703,1102.91 817.992,1096.48 818.167,1090.01 "/>
     <polygon id="_489954744" class="fil1" points="765.836,1261.4 1901.72,2397.28 1899.09,2400.88 1896.41,2404.41 1893.67,2407.86 1890.89,2411.22 1888.06,2414.51 1885.18,2417.71 1882.25,2420.82 1879.27,2423.85 1876.25,2426.8 1873.19,2429.65 1870.08,2432.41 1866.93,2435.08 1863.74,2437.66 1860.5,2440.14 1857.23,2442.53 1853.92,2444.82 1850.57,2447.01 1847.18,2449.1 1843.76,2451.1 1840.3,2452.98 1836.81,2454.77 1833.28,2456.45 1829.73,2458.03 1826.14,2459.49 1822.52,2460.85 1818.87,2462.1 1815.19,2463.24 1811.49,2464.26 1807.76,2465.17 1804,2465.96 1800.22,2466.64 1796.42,2467.2 660.534,1331.32 664.34,1330.76 668.121,1330.08 671.878,1329.29 675.608,1328.38 679.313,1327.35 682.99,1326.22 686.638,1324.97 690.257,1323.61 693.846,1322.14 697.404,1320.57 700.929,1318.89 704.421,1317.1 707.879,1315.21 711.302,1313.22 714.689,1311.13 718.039,1308.94 721.351,1306.65 724.623,1304.26 727.857,1301.78 731.05,1299.2 734.2,1296.53 737.308,1293.77 740.373,1290.91 743.393,1287.97 746.368,1284.94 749.295,1281.83 752.176,1278.63 755.008,1275.34 757.791,1271.98 760.524,1268.53 763.206,1265 "/>
     <polygon id="_489955680" class="fil1" points="660.534,1331.32 1796.42,2467.2 1796.42,2469.11 1796.43,2471.03 1796.45,2472.97 1796.47,2474.92 1796.5,2476.89 1796.53,2478.88 1796.58,2480.88 1796.62,2482.89 1796.68,2484.92 1796.74,2486.96 1796.8,2489.01 1796.87,2491.08 1796.95,2493.16 1797.03,2495.25 1797.11,2497.36 1797.2,2499.47 661.319,1363.59 661.229,1361.47 661.145,1359.37 661.065,1357.28 660.99,1355.2 660.921,1353.13 660.856,1351.07 660.797,1349.03 660.743,1347.01 660.695,1344.99 660.654,1342.99 660.618,1341.01 660.589,1339.04 660.565,1337.09 660.549,1335.15 660.538,1333.22 "/>
     <polygon id="_489955392" class="fil1" points="628.997,1331.32 1764.88,2467.2 1761.07,2466.64 1757.29,2465.96 1753.53,2465.17 1749.8,2464.26 1746.1,2463.24 1742.42,2462.1 1738.77,2460.85 1735.16,2459.49 1731.57,2458.03 1728.01,2456.45 1724.48,2454.77 1720.99,2452.98 1717.53,2451.1 1714.11,2449.1 1710.72,2447.01 1707.37,2444.82 1704.06,2442.53 1700.79,2440.14 1697.55,2437.66 1694.36,2435.08 1691.21,2432.41 555.33,1296.53 558.481,1299.2 561.674,1301.78 564.906,1304.26 568.18,1306.65 571.492,1308.94 574.842,1311.13 578.229,1313.22 581.652,1315.21 585.11,1317.1 588.602,1318.89 592.127,1320.57 595.685,1322.14 599.274,1323.61 602.893,1324.97 606.541,1326.22 610.218,1327.35 613.923,1328.38 617.653,1329.29 621.41,1330.08 625.191,1330.76 "/>
     <polygon id="_489955416" class="fil1" points="661.319,1363.59 1797.2,2499.47 1797.43,2504.59 1797.69,2509.77 1797.97,2515.02 1798.27,2520.31 1798.58,2525.66 1798.91,2531.06 1799.26,2536.5 1799.62,2541.98 1799.98,2547.49 1800.36,2553.04 1800.74,2558.62 1801.12,2564.22 1801.51,2569.84 1801.89,2575.47 1802.27,2581.12 1802.65,2586.78 1803.02,2592.45 1803.38,2598.11 1803.73,2603.77 1804.07,2609.43 1804.39,2615.07 1804.69,2620.7 1804.98,2626.32 1805.24,2631.91 1805.48,2637.47 1805.7,2643 1805.88,2648.5 1806.04,2653.97 1806.17,2659.39 1806.26,2664.76 1806.32,2670.09 1806.34,2675.36 670.458,1539.48 670.438,1534.2 670.381,1528.88 670.288,1523.5 670.162,1518.08 670.003,1512.62 669.815,1507.12 669.601,1501.59 669.36,1496.02 669.096,1490.43 668.81,1484.82 668.507,1479.19 668.184,1473.55 667.848,1467.89 667.498,1462.23 667.138,1456.56 666.768,1450.9 666.391,1445.24 666.01,1439.59 665.626,1433.96 665.241,1428.33 664.857,1422.73 664.478,1417.16 664.104,1411.61 663.736,1406.09 663.378,1400.61 663.034,1395.17 662.701,1389.78 662.385,1384.43 662.086,1379.13 661.808,1373.89 661.551,1368.71 "/>
     <polygon id="_489955752" class="fil1" points="797.451,1584 1933.33,2719.88 1780.65,2719.88 644.764,1584 "/>
     <polygon id="_489955776" class="fil1" points="644.764,1584 1780.65,2719.88 1636.09,2719.88 500.208,1584 "/>
     <polygon id="_489955824" class="fil1" points="500.208,1584 1636.09,2719.88 1634.27,2719.81 1632.68,2719.73 1631.3,2719.67 1630.16,2719.6 1629.26,2719.54 1628.59,2719.49 1628.19,2719.44 1628.04,2719.4 492.154,1583.52 492.304,1583.56 492.713,1583.61 493.374,1583.66 494.279,1583.72 495.422,1583.78 496.796,1583.85 498.394,1583.92 "/>
     <polygon id="_489955872" class="fil1" points="793.472,1567.2 1929.35,2703.09 1930.38,2703.97 1931.3,2704.94 1932.11,2705.98 1932.82,2707.09 1933.42,2708.25 1933.9,2709.47 1934.27,2710.73 1934.52,2712.01 1934.64,2713.32 1934.64,2714.64 1934.52,2715.97 1934.26,2717.29 1933.86,2718.6 1933.33,2719.88 797.451,1584 797.983,1582.72 798.376,1581.41 798.636,1580.09 798.764,1578.76 798.764,1577.44 798.637,1576.13 798.389,1574.84 798.021,1573.59 797.536,1572.37 796.939,1571.21 796.23,1570.09 795.415,1569.05 794.494,1568.09 "/>
    </g>
    <path id="_517131760" class="fil1" d="M1180.62 548.308l53.7426 28.4244 21.7925 11.5252 0.0366142 -0.119291 16.9973 8.99056c-0.0106299,0.0401575 -0.022441,0.080315 -0.0330709,0.121654l113.391 59.9717 17.1862 9.08977 19.6276 10.3807 153.332 81.0957c-11.3102,85.5331 -58.4292,195.711 -113.432,254.771l-162.865 -59.6835 -20.7437 -7.60276 -18.3567 -6.7252 -120.439 -44.1366c-0.022441,0.0354331 -0.0448819,0.0696851 -0.0673229,0.105118l-18.0579 -6.61654 0.0637796 -0.10748 -23.1473 -8.48386 -57.0851 -20.9185c-63.1985,-23.1614 -67.0867,-67.1008 -70.1422,-101.648 -2.77087,-31.3217 -5.07284,-57.3319 -33.9461,-70.1871l-136.032 -60.5658 -1.54843 3.47835 -82.7953 -36.8622 -2.38229 5.35158 -34.9205 -15.548 2.38229 -5.35158 -10.0252 -4.46339c-3.60473,-1.60394 -6.01536,-4.81772 -6.76772,-8.42481 -35.4071,-0.23504 -26.8299,81.1642 -11.8276,132.711 19.0016,65.3008 27.0484,135.672 12.5906,155.973 -5.17087,20.6858 -36.6248,12.8232 -31.454,-7.86379 28.461,-47.5063 -95.2253,-169.756 -46.5189,-298.207 17.3374,-45.7241 61.4162,-82.8095 110.593,-63.0674l5.65276 -12.698c2.64803,-5.94804 9.67914,-8.64686 15.6284,-5.99882l10.0252 4.46339 2.38229 -5.3504 34.9205 15.5469 -2.38229 5.35158 82.7953 36.8622 -1.54843 3.47953 136.031 60.5646c28.8709,12.8539 49.741,-2.83937 74.8725,-21.737 27.7193,-20.8453 62.9776,-47.3575 122.476,-15.8906zm-535.693 357.275c68.0564,0 123.816,5.21221 128.777,11.8228 0.0106299,-0.00236221 0.022441,-0.00472441 0.0330709,-0.00708662 13.1433,20.954 23.8512,45.1311 31.4823,71.6386 8.38583,29.1343 13.0039,61.0111 13.0039,94.4528 0,69.7075 -20.0209,132.589 -52.389,177.905 -27.7666,38.8725 -64.5922,64.5957 -105.301,69.9201 0,10.1315 0.295276,20.954 0.784253,32.2736 2.34567,54.2552 9.13938,119.946 9.13938,175.886 19.7291,1.0311 38.4933,3.19843 55.6926,6.30237 25.9252,4.67953 48.2504,11.5571 64.9843,19.9512 6.73701,3.36851 9.52087,11.4969 6.31654,18.2705l-152.687 0 -144.556 0c-5.12126,-0.211417 -8.00434,-0.377953 -8.05394,-0.479528 -3.35433,-6.88819 -0.488977,-15.1925 6.4004,-18.548 16.7835,-8.17796 38.967,-14.8725 64.6382,-19.4303 17.1898,-3.05197 36.0142,-5.16496 55.8804,-6.13819 0.00708662,-67.5981 9.92363,-149.415 9.92363,-208.088 -40.7091,-5.32441 -77.5359,-31.0465 -105.302,-69.9201 -32.3681,-45.3154 -52.3878,-108.197 -52.3878,-177.905 0,-33.4418 4.61693,-65.3186 13.0039,-94.4528 7.62993,-26.5075 18.339,-50.6847 31.4823,-71.6386 0.105118,0.022441 0.210236,0.0448819 0.315355,0.0661418 4.67008,-6.63898 60.5611,-11.8819 128.821,-11.8819z"/>
   </g>
  </g>
  <path class="fil2" d="M1024 -0.0011811c565.541,0 1024,458.461 1024,1024 0,565.541 -458.461,1024 -1024,1024 -565.541,0 -1024,-458.461 -1024,-1024 0,-565.541 458.461,-1024 1024,-1024z"/>
  <path class="fil3" d="M673.089 565.079l26.6788 -81.3627c-49.1764,-19.7433 -93.2552,17.341 -110.593,63.0662 -48.7063,128.451 74.98,250.701 46.5201,298.207 -5.17205,20.687 26.2819,28.5496 31.454,7.86379 14.4579,-20.3008 6.40985,-90.6721 -12.5929,-155.972 -15.8823,-54.5764 -24.5646,-142.616 18.5327,-131.803z"/>
  <path class="fil4" d="M777.488 614.88l160.987 71.6753c28.8733,12.8551 31.174,38.8654 33.9449,70.1871 3.0567,34.5473 6.94607,78.4867 70.1434,101.648l420.698 154.169c55.004,-59.0599 102.122,-169.238 113.432,-254.771l-396.072 -209.48c-59.4981,-31.467 -94.7564,-4.95591 -122.476,15.8906 -25.1315,18.8977 -46.0016,34.591 -74.8725,21.737l-160.986 -71.6753 -44.7992 100.619z"/>
  <path class="fil5" d="M667.154 556.966l38.2666 -85.9489c2.64803,-5.94804 9.67914,-8.64686 15.6284,-5.99882l127.741 56.8737 -47.8961 107.576 -127.741 -56.8737c-5.94922,-2.64803 -8.64804,-9.67914 -5.99882,-15.6284z"/>
  <rect class="fil6" transform="matrix(0.240735 -0.5407 0.882199 0.39278 680.796 582.409)" width="218.751" height="39.5835"/>
  <path class="fil7" d="M1423.36 676.692l-188.998 -99.9591c-29.6504,109.469 -74.8619,210.155 -134.715,302.576l200.749 73.5674c62.8961,-80.439 102.286,-173.348 122.965,-276.184z"/>
  <path class="fil8" d="M1403.73 666.311l-17.1862 -9.08859c-29.6835,130.814 -48.1548,172.871 -125.251,281.325l18.3567 6.72756c74.5843,-103.045 93.2115,-149.06 124.081,-278.964z"/>
  <path class="fil8" d="M1273.19 597.129l-16.9973 -8.99056c-0.0661418,0.194882 -0.127559,0.392126 -0.18189,0.592914 -14.6339,54.0284 -33.1063,105.887 -55.304,155.638 -22.1917,49.7374 -48.1158,97.3843 -77.6575,142.999 -0.112205,0.175984 -0.218504,0.351969 -0.317717,0.532678l18.0591 6.61772c29.2429,-45.4866 54.9721,-92.9694 77.0764,-142.508 22.1114,-49.5579 40.5886,-101.165 55.3229,-154.88z"/>
  <ellipse class="fil9" cx="644.928" cy="918.366" rx="129.136" ry="12.7825"/>
  <path class="fil10" d="M498.554 1564.97c-6.88938,3.35433 -9.75473,11.6587 -6.4004,18.5469 0.0496063,0.100394 2.9315,0.26811 8.05394,0.480709l297.244 0c3.20433,-6.77481 0.420473,-14.9032 -6.31654,-18.2717 -16.7339,-8.3941 -39.0591,-15.2717 -64.9855,-19.9512 -24.7016,-4.45748 -52.63,-6.98386 -82.0134,-6.98386 -29.1284,0 -56.6658,2.4378 -80.9434,6.74764 -25.6713,4.55788 -47.8548,11.2524 -64.6382,19.4315z"/>
  <path class="fil10" d="M805.221 989.038c-7.63111,-26.5075 -18.339,-50.6835 -31.4823,-71.6386 -18.9106,3.98386 -38.3859,7.11851 -58.3193,9.32835 -23.126,2.56418 -46.7363,3.90237 -70.6536,3.90237 -23.9173,0 -47.5276,-1.33819 -70.6536,-3.90237 -19.9335,-2.20984 -39.4099,-5.34449 -58.3205,-9.32835 -13.1433,20.9551 -23.8512,45.1311 -31.4811,71.6386 -8.38701,29.1343 -13.0039,61.0123 -13.0039,94.4528 0,69.7064 20.0209,132.589 52.3878,177.905 31.311,43.8355 74.1426,70.9489 121.071,70.9489 46.9276,0 89.7591,-27.1134 121.071,-70.9489 32.367,-45.3154 52.3878,-108.199 52.3878,-177.905 0,-33.4406 -4.61811,-65.3186 -13.0039,-94.4528z"/>
  <path class="fil10" d="M628.997 1331.32c0,58.6937 -9.92363,140.548 -9.92363,208.161 0,21.9957 51.3839,21.9957 51.3839,0 0,-67.6134 -9.92363,-149.467 -9.92363,-208.161 -0.298819,-13.0795 -31.8402,-12.965 -31.5366,0z"/>
  <path class="fil11" d="M765.837 1261.39c32.367,-45.3142 52.3878,-108.196 52.3878,-177.904 0,-33.4406 -4.61811,-65.3186 -13.0039,-94.4516 -7.63111,-26.5087 -18.339,-50.6859 -31.4823,-71.6398 -18.9095,3.98386 -38.3859,7.11851 -58.3193,9.32835 -23.126,2.56418 -46.7363,3.90237 -70.6536,3.90237l0 390.919c7.81064,0.0472441 15.6201,3.28937 15.7677,9.76772 40.7103,-5.32559 77.5359,-31.0488 105.304,-69.9225z"/>
  <path class="fil11" d="M670.457 1539.48c0,-67.6134 -9.92363,-149.467 -9.92363,-208.161 -0.147638,-6.47717 -7.95709,-9.7193 -15.7677,-9.76654l0 10.7953 0 206.451 0 17.178c12.8457,0 25.6914,-5.49804 25.6914,-16.4965z"/>
  <path class="fil11" d="M797.451 1584c3.20433,-6.77481 0.420473,-14.9032 -6.31654,-18.2717 -16.7339,-8.3941 -39.0591,-15.2717 -64.9855,-19.9512 -17.198,-3.10394 -35.9622,-5.27126 -55.6926,-6.30119 0,10.9984 -12.8457,16.4965 -25.6914,16.4965l0 28.0276 152.686 0z"/>
  <path class="fil12" d="M501.892 1153.75c7.47402,33.7146 20.7024,66.5032 40.5355,94.2698 23.9764,33.567 59.4449,61.3087 102.337,61.3087 42.8929,0 78.3627,-27.7406 102.339,-61.3087 28.0618,-39.287 42.9012,-88.5119 46.9418,-136.707 -11.4402,-3.1311 -23.1638,-4.28386 -35.3764,-3.72756 -29.9882,1.36417 -60.6378,12.7677 -88.4953,23.2843 -38.2394,14.4343 -77.8123,30.3673 -119.3,30.6579 -17.2878,0.120473 -33.5658,-2.51929 -48.9815,-7.77757z"/>
  <path class="fil11" d="M661.319 1363.59c-0.488977,-11.3197 -0.784253,-22.1421 -0.784253,-32.2736 -0.148819,-6.47717 -7.95945,-9.71812 -15.7701,-9.76654l0 10.7953 0 31.2449 16.5543 0z"/>
  <path class="fil13" d="M644.765 1140.42l-0.0011811 168.908c42.8929,0 78.3627,-27.7406 102.339,-61.3087 28.0618,-39.287 42.9012,-88.5119 46.9418,-136.707 -11.4402,-3.1311 -23.1638,-4.28386 -35.3764,-3.72756 -29.9882,1.36417 -60.6378,12.7677 -88.4953,23.2843 -8.40355,3.17244 -16.8697,6.41575 -25.4079,9.5504z"/>
 </g>
</svg>
